<svg xmlns="http://www.w3.org/2000/svg" xmlns:xlink="http://www.w3.org/1999/xlink" width="335.241" height="352.204" viewBox="0 0 335.241 352.204">
  <defs>
    <clipPath id="clip-path">
      <path id="Subtração_3" data-name="Subtração 3" d="M0,314.17H0C29.4,268.606,88.021,167.2,150.279,0c67.075,190.033,130.82,286.683,148.76,311.778-40.188-39.279-92.86-60.911-148.314-60.911C94.027,250.867,40.5,273.349,0,314.17Z" transform="translate(231.528 201.727)" fill="#2e3440"/>
    </clipPath>
  </defs>
  <g id="logo" transform="translate(-231.528 -201.727)">
    <path id="Subtração_2" data-name="Subtração 2" d="M72.529,352.2h0C105.489,301.124,171.2,187.446,241,0c75.2,213.039,146.658,321.39,166.769,349.523-45.054-44.034-104.1-68.285-166.27-68.285C177.938,281.238,117.93,306.441,72.529,352.2Z" transform="translate(159 201.727)" fill="#2e3440"/>
    <g id="Grupo_de_máscara_1" data-name="Grupo de máscara 1" transform="translate(18.101 19.017)" opacity="0.76" clip-path="url(#clip-path)">
      <g id="code" transform="translate(290.467 210.543)">
        <path id="Caminho_6" data-name="Caminho 6" d="M17.6,21.61H120.824m20.947,257.956h13.981m5.991,0h17.293" transform="translate(-17.603 -21.61)" fill="none" stroke="#4c566a" stroke-linecap="round" stroke-miterlimit="10" stroke-width="5" stroke-dasharray="150.778 150.778"/>
        <path id="Caminho_7" data-name="Caminho 7" d="M17.6,32.478H50.679M28.009,232.32H59.746" transform="translate(-17.603 -22.784)" fill="none" stroke="#4c566a" stroke-linecap="round" stroke-miterlimit="10" stroke-width="5" stroke-dasharray="72.659 72.659"/>
        <path id="Caminho_8" data-name="Caminho 8" d="M67.161,32.478H123.57M88.4,51.841h18.169m40.553,38.727H161.1M115.216,109.93H149.8m-61.4,9.693h57.066m-25.915,48.408h46.2" transform="translate(-22.955 -22.784)" fill="none" stroke="#4c566a" stroke-linecap="round" stroke-miterlimit="10" stroke-width="5" stroke-dasharray="253.826 253.826"/>
        <path id="Caminho_9" data-name="Caminho 9" d="M90.971,217h51.246" transform="translate(-25.526 -42.711)" fill="none" stroke="#4c566a" stroke-linecap="round" stroke-miterlimit="10" stroke-width="5" stroke-dasharray="57.45 57.45"/>
        <path id="Caminho_10" data-name="Caminho 10" d="M88.4,227.871h28.034m-49.273,15.88h31.3m-13.25,9.669h53.339M88.4,263.114h35.464m-4.312,9.669h46.2M88.4,301.84h51.246" transform="translate(-22.955 -43.884)" fill="none" stroke="#4c566a" stroke-linecap="round" stroke-miterlimit="10" stroke-width="5" stroke-dasharray="275.316 275.316"/>
        <path id="Caminho_11" data-name="Caminho 11" d="M134.179,32.478h26.938m10.23,0h36.365M117.787,51.841h34.586m32.857,0h22.48M90.971,61.509H122.1M90.971,90.567H109.14m60.526,0h17.293m-40.676,9.693h31.152m-18.144,9.669h18.144" transform="translate(-25.526 -22.784)" fill="none" stroke="#4c566a" stroke-linecap="round" stroke-miterlimit="10" stroke-width="5" stroke-dasharray="264.857 264.857"/>
        <path id="Caminho_12" data-name="Caminho 12" d="M196.642,119.307h22.48" transform="translate(-36.937 -32.16)" fill="none" stroke="#4c566a" stroke-linecap="round" stroke-miterlimit="10" stroke-width="5" stroke-dasharray="25.202 25.202"/>
        <path id="Caminho_13" data-name="Caminho 13" d="M154.955,130.174h32m-77.915,19.363h15.807M90.971,168.9h35.464M110.87,188.264h22.505m12.908,29.056h31.152" transform="translate(-25.526 -33.334)" fill="none" stroke="#4c566a" stroke-linecap="round" stroke-miterlimit="10" stroke-width="5" stroke-dasharray="153.51 153.51"/>
        <path id="Caminho_14" data-name="Caminho 14" d="M179.193,217h17.293" transform="translate(-35.053 -42.711)" fill="none" stroke="#4c566a" stroke-linecap="round" stroke-miterlimit="10" stroke-width="5" stroke-dasharray="19.387 19.387"/>
        <path id="Caminho_15" data-name="Caminho 15" d="M207.711,245.674h-72.63m57.09,19.363h15.54m-116.74,9.669h24.21M110.87,284.4h22.505" transform="translate(-25.526 -45.807)" fill="none" stroke="#4c566a" stroke-linecap="round" stroke-miterlimit="10" stroke-width="5" stroke-dasharray="151.215 151.215"/>
        <path id="Caminho_16" data-name="Caminho 16" d="M152.98,321.663h31.152" transform="translate(-32.222 -54.013)" fill="none" stroke="#4c566a" stroke-linecap="round" stroke-miterlimit="10" stroke-width="5" stroke-dasharray="34.923 34.923"/>
        <path id="Caminho_17" data-name="Caminho 17" d="M90.971,321.663h28.034" transform="translate(-25.526 -54.013)" fill="none" stroke="#4c566a" stroke-linecap="round" stroke-miterlimit="10" stroke-width="5" stroke-dasharray="31.428 31.428"/>
        <path id="Caminho_18" data-name="Caminho 18" d="M17.6,43.317H70.942M17.6,149.826H70.942" transform="translate(-17.603 -23.954)" fill="none" stroke="#4c566a" stroke-linecap="round" stroke-miterlimit="10" stroke-width="5" stroke-dasharray="119.594 119.594"/>
        <path id="Caminho_19" data-name="Caminho 19" d="M129.015,65.024h39.347m5.834,0h11.74M90.971,171.546h24.21M174.2,255.2h11.74" transform="translate(-25.526 -26.298)" fill="none" stroke="#4c566a" stroke-linecap="round" stroke-miterlimit="10" stroke-width="5" stroke-dasharray="97.574 97.574"/>
        <path id="Caminho_20" data-name="Caminho 20" d="M156.72,54.185h18.144M108.3,73.548H130.8M67.161,141.331h31.3m34.051,0h50.27m-11.155,29.045h11.74M135.8,180.058H177.69m-45.18,64.3h26.353" transform="translate(-22.955 -25.128)" fill="none" stroke="#4c566a" stroke-linecap="round" stroke-miterlimit="10" stroke-width="5" stroke-dasharray="226.683 226.683"/>
        <path id="Caminho_21" data-name="Caminho 21" d="M87.394,162.721h31.737" transform="translate(-25.14 -36.849)" fill="none" stroke="#4c566a" stroke-linecap="round" stroke-miterlimit="10" stroke-width="5" stroke-dasharray="35.579 35.579"/>
        <path id="Caminho_22" data-name="Caminho 22" d="M79.857,43.317h31.737M42.422,53.011H73.549M42.422,62.68H73.549m-9.523,9.694H94.3M42.422,91.738H73.549m-31.127,9.693H73.549M42.422,111.1H73.549m-31.127,9.693H73.549M17.6,140.157H50.679m-8.256,19.364H73.549M42.422,169.2H73.549m-9.523,9.683H94.3M42.422,198.247H73.549m-31.127,9.693H73.549M17.6,223.821H50.679m91.092-25.574h13.981M42.422,243.184H73.549m-31.127,9.669H73.549m-9.523,9.694H94.3M42.422,281.91H73.549M42.422,291.6H73.549m43.769,0h13.249" transform="translate(-17.603 -23.954)" fill="none" stroke="#4c566a" stroke-linecap="round" stroke-miterlimit="10" stroke-width="5" stroke-dasharray="730.613 730.613"/>
        <path id="Caminho_23" data-name="Caminho 23" d="M117.787,97.6h26.6m-53.414,9.693h28.034m16.076,58.089h26.353M125.241,213.8H138.49m-29.446,15.88h15.807m43.5,19.363h16.026" transform="translate(-25.526 -29.816)" fill="none" stroke="#4c566a" stroke-linecap="round" stroke-miterlimit="10" stroke-width="5" stroke-dasharray="141.328 141.328"/>
        <path id="Caminho_24" data-name="Caminho 24" d="M90.971,119.307H109.14" transform="translate(-25.526 -32.16)" fill="none" stroke="#4c566a" stroke-linecap="round" stroke-miterlimit="10" stroke-width="5" stroke-dasharray="20.369 20.369"/>
        <path id="Caminho_25" data-name="Caminho 25" d="M129.39,108.467h13.249" transform="translate(-29.675 -30.99)" fill="none" stroke="#4c566a" stroke-linecap="round" stroke-miterlimit="10" stroke-width="5" stroke-dasharray="14.853 14.853"/>
        <path id="Caminho_26" data-name="Caminho 26" d="M198.061,195.3H210.58" transform="translate(-37.091 -40.367)" fill="none" stroke="#4c566a" stroke-linecap="round" stroke-miterlimit="10" stroke-width="5" stroke-dasharray="14.035 14.035"/>
      </g>
    </g>
    <g id="zen" transform="translate(70.779 -73.594)">
      <path id="Subtração_1" data-name="Subtração 1" d="M130.656,86.893h0a9.263,9.263,0,0,1,4.606-17.3h67.919a9.263,9.263,0,0,1,5.233,16.9,237.5,237.5,0,0,0-77.758.4Z" transform="translate(159 469.07)" fill="#d8dee9"/>
      <path id="Caminho_3" data-name="Caminho 3" d="M16.122,0A16.122,16.122,0,1,1,0,16.122,16.122,16.122,0,0,1,16.122,0Z" transform="translate(311.756 468)" fill="#d8dee9"/>
      <path id="Caminho_4" data-name="Caminho 4" d="M5.488,0H53.512A5.488,5.488,0,0,1,59,5.488V19.21A12.349,12.349,0,0,1,46.652,31.559h-34.3A12.349,12.349,0,0,1,0,19.21V5.488A5.488,5.488,0,0,1,5.488,0Z" transform="translate(298.721 503.675)" fill="#d8dee9"/>
    </g>
  </g>
</svg>
